<svg xmlns="http://www.w3.org/2000/svg" viewBox="0 0 165.07 655.65"><defs><style>.cls-1,.cls-2{fill:#fff;}.cls-2,.cls-3{stroke:#000;stroke-miterlimit:10;stroke-width:4px;}.cls-3{fill:none;}</style></defs><title>hero</title><g id="Layer_1" data-name="Layer 1"><path class="cls-1" d="M290.84,295.61a80.53,80.53,0,1,1,80.53-80.53A80.63,80.63,0,0,1,290.84,295.61Z" transform="translate(-208.3 -50.85)"/><path d="M290.84,136.54a78.53,78.53,0,1,1-78.53,78.53,78.62,78.62,0,0,1,78.53-78.53m0-4a82.53,82.53,0,1,0,82.53,82.53,82.53,82.53,0,0,0-82.53-82.53Z" transform="translate(-208.3 -50.85)"/><polyline class="cls-2" points="47.6 655.14 80.7 486.15 80.7 247.15"/><path d="M226.68,189.64v50.68c0,6.43,10,6.45,10,0V189.64c0-6.43-10-6.45-10,0Z" transform="translate(-208.3 -50.85)"/><path d="M250.9,189.82v50.68c0,6.43,10,6.45,10,0V189.82c0-6.43-10-6.45-10,0Z" transform="translate(-208.3 -50.85)"/><line class="cls-3" x1="80.7" y1="486.15" x2="125.68" y2="655.14"/><path class="cls-2" d="M247.6,144.76,285.36,55.3l54.79,93.58S280.4,163,247.6,144.76Z" transform="translate(-208.3 -50.85)"/><line class="cls-1" x1="96.44" y1="330.57" x2="55.82" y2="394.87"/><path d="M303.45,380.66,262.83,445c-1,1.64,1.56,3.14,2.59,1.51L306,382.18c1-1.64-1.56-3.14-2.59-1.51Z" transform="translate(-208.3 -50.85)"/><path d="M287.55,298.4l15.74,83.42c.36,1.89,3.25,1.09,2.89-.8L290.45,297.6c-.36-1.89-3.25-1.09-2.89.8Z" transform="translate(-208.3 -50.85)"/></g></svg>