<svg id="Layer_2" data-name="Layer 2" xmlns="http://www.w3.org/2000/svg" xmlns:xlink="http://www.w3.org/1999/xlink" viewBox="0 0 253.75 204.13"><defs><style>.cls-1{fill:#a67c52;stroke:#42210b;}.cls-1,.cls-3,.cls-5,.cls-7{stroke-miterlimit:10;}.cls-2,.cls-7{fill:none;}.cls-3{stroke:gray;fill:url(#linear-gradient);}.cls-4{fill:gray;}.cls-5,.cls-6{fill:#42210b;}.cls-5,.cls-7{stroke:#1a1a1a;}</style><linearGradient id="linear-gradient" x1="-19.58" y1="36.06" x2="104.56" y2="107.73" gradientUnits="userSpaceOnUse"><stop offset="0" stop-color="#fff"/><stop offset="1"/></linearGradient></defs><title>sword</title><path class="cls-1" d="M117.62,332.3l37.15,59.92c4.07,6.57,13.66-.66,9.61-7.19l-37.15-59.92c-4.07-6.57-13.66.66-9.61,7.19Z" transform="translate(-36.74 -191.18)"/><path d="M288.24,296.7,171.54,364.1l-16.63,9.6a1.5,1.5,0,0,0,1.51,2.59l116.71-67.4,16.63-9.6a1.5,1.5,0,0,0-1.51-2.59Z" transform="translate(-36.74 -191.18)"/><line class="cls-2" x1="28.93" y1="101.82" x2="87.93" y2="129.41"/><polygon class="cls-3" points="75.94 140.39 75.94 140.39 0.76 35.15 0.76 0.82 34.01 17.82 91.11 131.02 75.94 140.39"/><path class="cls-4" d="M36.85,192.38l73.09,118,10.51,17c.51.82,1.81.07,1.3-.76l-73.09-118-10.51-17c-.51-.82-1.81-.07-1.3.76Z" transform="translate(-36.74 -191.18)"/><path class="cls-5" d="M133.08,334.55C143.82,326.81,147.2,312.42,145,311c-1.75-1.13-5.94,6.66-17.15,11.2a68.35,68.35,0,0,0-7.63,3.36c-4.31,2.26-5.33,3.41-8.25,5.11-7.63,4.47-13.49,3.18-13.6,4.59-.15,2,11.52,6.73,23.62,4.08A30.48,30.48,0,0,0,133.08,334.55Z" transform="translate(-36.74 -191.18)"/><path class="cls-6" d="M114.75,344.5" transform="translate(-36.74 -191.18)"/><line class="cls-7" x1="101.66" y1="151.94" x2="95.73" y2="165.06"/><line class="cls-7" x1="108.9" y1="163.62" x2="95.73" y2="165.06"/><line class="cls-7" x1="100.64" y1="172.99" x2="108.9" y2="163.62"/><line class="cls-7" x1="115.85" y1="174.83" x2="100.64" y2="172.99"/><line class="cls-7" x1="107.29" y1="183.71" x2="115.85" y2="174.83"/><line class="cls-7" x1="119.51" y1="180.73" x2="107.29" y2="183.71"/></svg>